<svg width="153" height="42" viewBox="0 0 153 42" fill="none" xmlns="http://www.w3.org/2000/svg">
<path d="M25.6592 22.9443C25.2523 22.1956 24.6419 21.5202 23.8281 20.918C23.0143 20.3158 22.0947 19.8356 21.0693 19.4775C20.0602 19.1032 19.0023 18.8265 17.8955 18.6475C14.6077 18.1592 11.5397 17.0931 8.69141 15.4492C8.44727 15.319 8.18685 15.0423 7.91016 14.6191C7.63346 14.196 7.49512 13.7891 7.49512 13.3984C7.49512 11.9661 7.73112 10.5339 8.20312 9.10156C8.69141 7.65299 9.3099 6.52181 10.0586 5.70801C11.263 4.3571 13.4277 3.17708 16.5527 2.16797C19.694 1.15885 23.2259 0.654297 27.1484 0.654297C29.4922 0.654297 31.2988 0.833333 32.5684 1.19141C33.8542 1.54948 34.4971 2.10286 34.4971 2.85156C34.4971 4.07227 34.3262 5.01628 33.9844 5.68359C33.6589 6.35091 33.3008 6.7985 32.9102 7.02637C32.5358 7.23796 31.8685 7.53092 30.9082 7.90527C29.8828 8.26335 28.9876 8.6377 28.2227 9.02832C27.474 9.41895 26.8311 9.79329 26.2939 10.1514C25.7568 10.5094 25.4232 10.6885 25.293 10.6885C25.1302 10.6885 25.0488 10.6234 25.0488 10.4932C25.0488 10.2165 25.3337 9.80143 25.9033 9.24805C26.4893 8.67839 27.2054 8.18197 28.0518 7.75879C28.9469 7.28678 29.3945 6.98568 29.3945 6.85547C29.3945 6.64388 28.8981 6.53809 27.9053 6.53809C24.8942 6.53809 22.111 6.80664 19.5557 7.34375C17.0003 7.88086 14.9821 8.58887 13.501 9.46777C12.0361 10.3467 11.3037 11.2419 11.3037 12.1533C11.3037 12.723 11.6048 13.1299 12.207 13.374C12.8255 13.6019 14.1764 13.9925 16.2598 14.5459C18.3431 15.0993 20.2067 15.734 21.8506 16.4502C24.2106 17.4593 25.9603 18.5091 27.0996 19.5996C28.2389 20.6901 28.8086 21.9108 28.8086 23.2617C28.8086 24.1895 28.5807 25.1253 28.125 26.0693C27.6855 26.9971 27.0345 27.8516 26.1719 28.6328C25.3092 29.4141 24.3164 30.057 23.1934 30.5615C22.2331 30.9684 21.0205 31.3509 19.5557 31.709C18.1071 32.0671 16.5283 32.3438 14.8193 32.5391C13.1266 32.7507 11.5072 32.8564 9.96094 32.8564C7.11263 32.8564 4.81771 32.5879 3.07617 32.0508C1.35091 31.5137 0.488281 30.6999 0.488281 29.6094C0.488281 29.1211 0.78125 28.3643 1.36719 27.3389C1.95312 26.2972 2.64486 25.5973 3.44238 25.2393C4.14225 24.9626 4.81771 24.8079 5.46875 24.7754C6.11979 24.7266 6.44531 24.7998 6.44531 24.9951C6.44531 25.0439 6.4209 25.0928 6.37207 25.1416C6.32324 25.1904 6.26628 25.2311 6.20117 25.2637C6.13607 25.2962 6.07096 25.3288 6.00586 25.3613C5.68034 25.4915 5.41178 25.5973 5.2002 25.6787C5.00488 25.7438 4.84212 25.8171 4.71191 25.8984C4.59798 25.9635 4.54102 26.0612 4.54102 26.1914C4.54102 26.5332 6.22559 26.7041 9.59473 26.7041C12.5244 26.7041 14.9251 26.5983 16.7969 26.3867C18.6686 26.1751 20.3206 25.7926 21.7529 25.2393C23.1852 24.6859 24.4873 23.9209 25.6592 22.9443ZM48.4131 22.2607V23.8965C47.3389 24.873 46.4762 25.5241 45.8252 25.8496C45.1742 26.1751 44.2383 26.3053 43.0176 26.2402C40.9017 28.7467 39.0381 30 37.4268 30C36.5153 30 35.6852 29.6989 34.9365 29.0967C34.1878 28.4945 33.5856 27.6725 33.1299 26.6309C32.6904 25.5892 32.4707 24.4255 32.4707 23.1396C32.4707 22.098 32.8125 20.9424 33.4961 19.6729C34.196 18.4033 35.0911 17.2233 36.1816 16.1328C37.2884 15.026 38.4684 14.139 39.7217 13.4717C40.9749 12.7881 42.1387 12.4463 43.2129 12.4463C43.9779 12.4463 44.5801 12.5684 45.0195 12.8125C45.459 13.0404 45.6787 13.3659 45.6787 13.7891C45.6787 14.1146 45.4915 14.4889 45.1172 14.9121C45.7357 15.0423 46.1589 15.262 46.3867 15.5713C46.6146 15.8643 46.7285 16.4095 46.7285 17.207C46.7285 17.9883 46.5413 18.973 46.167 20.1611C45.8089 21.3493 45.3125 22.4642 44.6777 23.5059L45.1172 23.9453H45.4834C45.7601 23.9453 46.0286 23.8802 46.2891 23.75C46.5658 23.6035 46.8099 23.457 47.0215 23.3105C47.2331 23.1478 47.6969 22.7979 48.4131 22.2607ZM43.3838 15.8398C42.0329 16.6536 40.8773 17.3942 39.917 18.0615C38.9567 18.7126 38.1429 19.3799 37.4756 20.0635C36.8083 20.7308 36.3607 21.4062 36.1328 22.0898C35.7259 23.9128 35.5225 24.8975 35.5225 25.0439C35.5225 26.1182 36.2712 26.6553 37.7686 26.6553C38.4684 26.6553 39.6403 26.0531 41.2842 24.8486C41.0075 24.0837 40.8691 23.3512 40.8691 22.6514C40.8691 21.626 41.0807 20.5843 41.5039 19.5264C41.9271 18.4521 42.5537 17.2233 43.3838 15.8398ZM73.6572 22.9443C73.2503 22.1956 72.64 21.5202 71.8262 20.918C71.0124 20.3158 70.0928 19.8356 69.0674 19.4775C68.0583 19.1032 67.0003 18.8265 65.8936 18.6475C62.6058 18.1592 59.5378 17.0931 56.6895 15.4492C56.4453 15.319 56.1849 15.0423 55.9082 14.6191C55.6315 14.196 55.4932 13.7891 55.4932 13.3984C55.4932 11.9661 55.7292 10.5339 56.2012 9.10156C56.6895 7.65299 57.3079 6.52181 58.0566 5.70801C59.2611 4.3571 61.4258 3.17708 64.5508 2.16797C67.6921 1.15885 71.224 0.654297 75.1465 0.654297C77.4902 0.654297 79.2969 0.833333 80.5664 1.19141C81.8522 1.54948 82.4951 2.10286 82.4951 2.85156C82.4951 4.07227 82.3242 5.01628 81.9824 5.68359C81.6569 6.35091 81.2988 6.7985 80.9082 7.02637C80.5339 7.23796 79.8665 7.53092 78.9062 7.90527C77.8809 8.26335 76.9857 8.6377 76.2207 9.02832C75.472 9.41895 74.8291 9.79329 74.292 10.1514C73.7549 10.5094 73.4212 10.6885 73.291 10.6885C73.1283 10.6885 73.0469 10.6234 73.0469 10.4932C73.0469 10.2165 73.3317 9.80143 73.9014 9.24805C74.4873 8.67839 75.2035 8.18197 76.0498 7.75879C76.945 7.28678 77.3926 6.98568 77.3926 6.85547C77.3926 6.64388 76.8962 6.53809 75.9033 6.53809C72.8923 6.53809 70.109 6.80664 67.5537 7.34375C64.9984 7.88086 62.9801 8.58887 61.499 9.46777C60.0342 10.3467 59.3018 11.2419 59.3018 12.1533C59.3018 12.723 59.6029 13.1299 60.2051 13.374C60.8236 13.6019 62.1745 13.9925 64.2578 14.5459C66.3411 15.0993 68.2048 15.734 69.8486 16.4502C72.2087 17.4593 73.9583 18.5091 75.0977 19.5996C76.237 20.6901 76.8066 21.9108 76.8066 23.2617C76.8066 24.1895 76.5788 25.1253 76.123 26.0693C75.6836 26.9971 75.0326 27.8516 74.1699 28.6328C73.3073 29.4141 72.3145 30.057 71.1914 30.5615C70.2311 30.9684 69.0186 31.3509 67.5537 31.709C66.1051 32.0671 64.5264 32.3438 62.8174 32.5391C61.1247 32.7507 59.5052 32.8564 57.959 32.8564C55.1107 32.8564 52.8158 32.5879 51.0742 32.0508C49.349 31.5137 48.4863 30.6999 48.4863 29.6094C48.4863 29.1211 48.7793 28.3643 49.3652 27.3389C49.9512 26.2972 50.6429 25.5973 51.4404 25.2393C52.1403 24.9626 52.8158 24.8079 53.4668 24.7754C54.1178 24.7266 54.4434 24.7998 54.4434 24.9951C54.4434 25.0439 54.4189 25.0928 54.3701 25.1416C54.3213 25.1904 54.2643 25.2311 54.1992 25.2637C54.1341 25.2962 54.069 25.3288 54.0039 25.3613C53.6784 25.4915 53.4098 25.5973 53.1982 25.6787C53.0029 25.7438 52.8402 25.8171 52.71 25.8984C52.596 25.9635 52.5391 26.0612 52.5391 26.1914C52.5391 26.5332 54.2236 26.7041 57.5928 26.7041C60.5225 26.7041 62.9232 26.5983 64.7949 26.3867C66.6667 26.1751 68.3187 25.7926 69.751 25.2393C71.1833 24.6859 72.4854 23.9209 73.6572 22.9443ZM89.2822 9.63867H90.332C91.1947 8.09245 91.9759 7.00195 92.6758 6.36719C93.3757 5.71615 94.1732 5.39062 95.0684 5.39062C95.9635 5.39062 96.4111 5.59408 96.4111 6.00098C96.4111 6.19629 96.0612 6.72526 95.3613 7.58789C94.6615 8.45052 94.1325 9.1748 93.7744 9.76074C94.3278 9.82585 94.8161 9.88281 95.2393 9.93164C95.6787 9.98047 96.0205 10.0212 96.2646 10.0537C95.3369 11.779 94.1732 13.5449 92.7734 15.3516C92.3177 15.319 91.9352 15.2946 91.626 15.2783C91.3167 15.2458 90.9993 15.2214 90.6738 15.2051C90.3646 15.1725 89.9821 15.14 89.5264 15.1074C88.6475 16.5234 87.9069 17.793 87.3047 18.916C86.7188 20.0228 86.263 21.04 85.9375 21.9678C85.6283 22.8955 85.4736 23.7744 85.4736 24.6045C85.4736 25.7275 85.9212 26.2891 86.8164 26.2891C87.4349 26.2891 88.2406 25.9635 89.2334 25.3125C90.2425 24.6452 91.5853 23.6279 93.2617 22.2607V23.8965C88.8672 28.6654 85.6201 31.0498 83.5205 31.0498C82.7881 31.0498 82.194 30.765 81.7383 30.1953C81.2988 29.6257 81.0791 28.8932 81.0791 27.998C81.0791 27.3958 81.2012 26.6797 81.4453 25.8496C81.7057 25.0195 82.1615 23.7663 82.8125 22.0898C82.5846 22.2852 82.3649 22.4805 82.1533 22.6758C81.958 22.8548 81.7708 23.0257 81.5918 23.1885C81.429 23.335 81.25 23.4977 81.0547 23.6768C80.8594 23.8395 80.6641 24.0104 80.4688 24.1895V22.5049C82.1777 21.0726 84.2448 18.5579 86.6699 14.9609C86.4258 14.9447 86.1979 14.9365 85.9863 14.9365C85.7747 14.9202 85.5225 14.9121 85.2295 14.9121C84.2692 14.9121 83.5531 14.9772 83.0811 15.1074C82.8857 15.1562 82.6986 15.2132 82.5195 15.2783C82.3568 15.3271 82.2428 15.3516 82.1777 15.3516C82.1126 15.3516 82.0801 15.3027 82.0801 15.2051C82.0801 14.668 82.4137 13.8623 83.0811 12.7881C83.6182 11.8766 84.1227 11.2012 84.5947 10.7617C85.083 10.3223 85.6689 10.0293 86.3525 9.88281C87.0524 9.72005 88.029 9.63867 89.2822 9.63867ZM104.712 20.6494C102.352 23.7744 100.553 25.9961 99.3164 27.3145C98.0957 28.6328 97.0947 29.292 96.3135 29.292C95.695 29.292 95.1253 29.0397 94.6045 28.5352C94.0837 28.0143 93.6768 27.3226 93.3838 26.46C93.1071 25.5811 92.9688 24.6452 92.9688 23.6523C92.9688 23.0013 93.0257 22.4154 93.1396 21.8945C93.2699 21.3737 93.5059 20.804 93.8477 20.1855C94.1895 19.5508 94.637 18.8672 95.1904 18.1348C95.7601 17.4023 96.4518 16.5723 97.2656 15.6445C97.7539 15.0749 98.1608 14.5947 98.4863 14.2041C98.8281 13.8135 99.1536 13.5531 99.4629 13.4229C99.7884 13.2764 100.309 13.2031 101.025 13.2031C101.546 13.2031 102.043 13.2764 102.515 13.4229C102.987 13.5531 103.223 13.6914 103.223 13.8379C103.223 14.1309 102.979 14.6598 102.49 15.4248C102.018 16.1898 101.245 17.1257 100.171 18.2324C99.113 19.3229 97.8841 20.3971 96.4844 21.4551C96.1751 22.4154 96.0205 23.1478 96.0205 23.6523C96.0205 24.3522 96.2891 24.7021 96.8262 24.7021C97.0215 24.7021 97.347 24.5394 97.8027 24.2139C98.2585 23.8721 99.0234 23.2292 100.098 22.2852C101.188 21.3249 102.165 20.4785 103.027 19.7461C103.662 19.1927 104.395 18.3708 105.225 17.2803C106.071 16.1735 106.755 15.3434 107.275 14.79C108.48 13.5205 109.302 12.6986 109.741 12.3242C110.181 11.9336 110.604 11.7383 111.011 11.7383C111.401 11.7383 111.662 11.8604 111.792 12.1045C111.938 12.3486 112.012 12.8451 112.012 13.5938C112.012 13.9355 111.979 14.2122 111.914 14.4238C111.849 14.6354 111.711 14.9121 111.499 15.2539C111.304 15.5794 110.897 16.1898 110.278 17.085C109.66 17.9801 108.927 19.0381 108.081 20.2588C107.625 20.9098 107.227 21.626 106.885 22.4072C106.543 23.1722 106.372 23.75 106.372 24.1406C106.372 24.987 106.706 25.4102 107.373 25.4102C107.926 25.4102 108.569 25.1823 109.302 24.7266C110.034 24.2708 111.157 23.4489 112.671 22.2607V23.8965C110.767 25.6543 109.359 26.932 108.447 27.7295C107.536 28.527 106.746 29.1292 106.079 29.5361C105.412 29.943 104.777 30.1465 104.175 30.1465C102.808 30.1465 102.124 29.3327 102.124 27.7051C102.124 27.0866 102.327 26.2565 102.734 25.2148C103.141 24.1569 103.8 22.6351 104.712 20.6494ZM123.608 22.3584C122.176 23.986 120.89 25.3695 119.751 26.5088C118.628 27.6481 117.708 28.5026 116.992 29.0723C116.292 29.6257 115.812 29.9023 115.552 29.9023C115.129 29.9023 114.648 29.5605 114.111 28.877C113.59 28.1934 113.143 27.3226 112.769 26.2646C112.394 25.2067 112.207 24.1325 112.207 23.042C112.207 21.4632 112.972 19.8763 114.502 18.2812C116.032 16.6699 117.773 15.3353 119.727 14.2773C121.68 13.2194 123.145 12.6904 124.121 12.6904C124.919 12.6904 125.7 13.195 126.465 14.2041C127.718 11.5837 128.906 9.25618 130.029 7.22168C131.169 5.18717 132.121 3.6735 132.886 2.68066C133.651 1.68783 134.196 1.19141 134.521 1.19141C134.88 1.19141 135.205 1.37044 135.498 1.72852C135.807 2.07031 135.962 2.46094 135.962 2.90039C135.962 3.74674 135.343 5.20345 134.106 7.27051C132.869 9.32129 131.649 11.3232 130.444 13.2764C129.24 15.2295 128.206 17.1582 127.344 19.0625C126.481 20.9505 126.05 22.7002 126.05 24.3115C126.05 25.7764 126.522 26.5088 127.466 26.5088C128.035 26.5088 128.752 26.1914 129.614 25.5566C130.477 24.9056 131.706 23.8232 133.301 22.3096V24.0918C129.785 28.6328 127.075 30.9033 125.171 30.9033C124.406 30.9033 123.853 30.6104 123.511 30.0244C123.185 29.4385 123.022 28.5677 123.022 27.4121C123.022 25.8496 123.218 24.165 123.608 22.3584ZM125.415 16.4014C123.966 16.8896 122.266 17.679 120.312 18.7695C118.359 19.8438 117.179 20.5843 116.772 20.9912C116.414 21.3167 116.097 21.9271 115.82 22.8223C115.544 23.7174 115.405 24.3929 115.405 24.8486C115.405 25.1253 115.487 25.3532 115.649 25.5322C115.812 25.7113 116.016 25.8008 116.26 25.8008C116.488 25.8008 116.748 25.7031 117.041 25.5078C117.334 25.3125 117.798 24.93 118.433 24.3604C119.084 23.7907 119.507 23.4245 119.702 23.2617C119.979 23.0176 120.589 22.4967 121.533 21.6992C122.493 20.8854 123.193 20.2507 123.633 19.7949C124.072 19.3392 124.447 18.8346 124.756 18.2812C125.065 17.7116 125.285 17.085 125.415 16.4014ZM144.556 23.2617L140.21 26.9482C138.143 28.7549 136.759 29.6582 136.06 29.6582C135.425 29.6582 134.757 28.9339 134.058 27.4854C133.358 26.0205 133.008 24.7428 133.008 23.6523C133.008 22.7246 133.146 21.9434 133.423 21.3086C133.716 20.6576 134.212 19.8193 134.912 18.7939C135.905 17.4105 136.857 16.2386 137.769 15.2783C138.68 14.318 139.486 13.5775 140.186 13.0566C140.885 12.5195 141.374 12.251 141.65 12.251C142.09 12.251 142.513 12.4788 142.92 12.9346C143.343 13.3903 143.555 13.8623 143.555 14.3506C143.555 14.6598 143.327 15.1562 142.871 15.8398C142.432 16.5234 141.724 17.3942 140.747 18.4521C139.787 19.4938 138.444 20.7471 136.719 22.2119L136.255 23.5547C136.125 23.8151 136.06 24.043 136.06 24.2383C136.06 24.6777 136.279 24.8975 136.719 24.8975C137.174 24.8975 138.241 24.3197 139.917 23.1641C141.61 22.0085 143.441 20.4541 145.41 18.501C146.175 17.736 146.81 17.0605 147.314 16.4746C147.819 15.8887 148.275 15.3434 148.682 14.8389C149.089 14.318 149.422 13.9274 149.683 13.667C149.959 13.4066 150.203 13.2682 150.415 13.252C150.822 13.2031 151.139 13.374 151.367 13.7646C151.595 14.1553 151.709 14.7331 151.709 15.498C151.709 15.9375 151.514 16.4909 151.123 17.1582C150.732 17.8092 150 18.9323 148.926 20.5273C147.852 22.1061 146.777 23.75 145.703 25.459C144.645 27.1517 143.563 29.0641 142.456 31.1963C142.505 31.1475 143.001 30.6592 143.945 29.7314C144.906 28.8037 145.915 27.8353 146.973 26.8262C148.031 25.8171 148.901 25.0114 149.585 24.4092C150.269 23.7907 151.123 23.0745 152.148 22.2607V23.8965C149.951 26.2565 147.957 28.4945 146.167 30.6104C144.393 32.7262 143.018 34.4189 142.041 35.6885C141.081 36.958 140.519 37.6986 140.356 37.9102C139.917 38.4798 139.518 39.0088 139.16 39.4971C138.818 40.0016 138.525 40.3841 138.281 40.6445C138.053 40.9212 137.866 41.0596 137.72 41.0596C137.378 41.0596 137.069 40.7178 136.792 40.0342C136.532 39.3669 136.401 38.7728 136.401 38.252C136.401 37.7799 136.491 37.3649 136.67 37.0068C137.842 34.3701 140.47 29.7884 144.556 23.2617Z" fill="white"/>
</svg>
